<svg width="69" height="41" viewBox="0 0 69 41" fill="none" xmlns="http://www.w3.org/2000/svg">
<circle cx="2.84586" cy="20.9978" r="2.73388" transform="rotate(0.328242 2.84586 20.9978)" fill="#CF4392"/>
<circle cx="3.21381" cy="30.2533" r="2.31328" transform="rotate(0.328242 3.21381 30.2533)" fill="#CF4392"/>
<circle cx="3.31952" cy="11.7474" r="2.31328" transform="rotate(0.328242 3.31952 11.7474)" fill="#CF4392"/>
<circle cx="2.95212" cy="2.49187" r="1.89268" transform="rotate(0.328242 2.95212 2.49187)" fill="#CF4392"/>
<circle cx="3.58616" cy="38.6674" r="1.89268" transform="rotate(0.328242 3.58616 38.6674)" fill="#CF4392"/>
<circle cx="13.361" cy="21.0581" r="2.73388" transform="rotate(0.328242 13.361 21.0581)" fill="#CF4392"/>
<circle cx="13.7282" cy="30.3133" r="2.31328" transform="rotate(0.328242 13.7282 30.3133)" fill="#CF4392"/>
<circle cx="13.8344" cy="11.8075" r="2.31328" transform="rotate(0.328242 13.8344 11.8075)" fill="#CF4392"/>
<circle cx="13.467" cy="2.55218" r="1.89268" transform="rotate(0.328242 13.467 2.55218)" fill="#CF4392"/>
<circle cx="14.1008" cy="38.7275" r="1.89268" transform="rotate(0.328242 14.1008 38.7275)" fill="#CF4392"/>
<circle cx="23.8756" cy="21.1184" r="2.73388" transform="rotate(0.328242 23.8756 21.1184)" fill="#CF4392"/>
<circle cx="24.2433" cy="30.3736" r="2.31328" transform="rotate(0.328242 24.2433 30.3736)" fill="#CF4392"/>
<circle cx="24.3493" cy="11.8678" r="2.31328" transform="rotate(0.328242 24.3493 11.8678)" fill="#CF4392"/>
<circle cx="23.9819" cy="2.61224" r="1.89268" transform="rotate(0.328242 23.9819 2.61224)" fill="#CF4392"/>
<circle cx="24.6155" cy="38.7878" r="1.89268" transform="rotate(0.328242 24.6155 38.7878)" fill="#CF4392"/>
<circle cx="34.3903" cy="21.1787" r="2.73388" transform="rotate(0.328242 34.3903 21.1787)" fill="#CF4392"/>
<circle cx="34.758" cy="30.4339" r="2.31328" transform="rotate(0.328242 34.758 30.4339)" fill="#CF4392"/>
<circle cx="34.864" cy="11.9278" r="2.31328" transform="rotate(0.328242 34.864 11.9278)" fill="#CF4392"/>
<circle cx="34.4966" cy="2.67254" r="1.89268" transform="rotate(0.328242 34.4966 2.67254)" fill="#CF4392"/>
<circle cx="35.1306" cy="38.8481" r="1.89268" transform="rotate(0.328242 35.1306 38.8481)" fill="#CF4392"/>
<circle cx="44.9052" cy="21.2388" r="2.73388" transform="rotate(0.328242 44.9052 21.2388)" fill="#CF4392"/>
<circle cx="45.2726" cy="30.4942" r="2.31328" transform="rotate(0.328242 45.2726 30.4942)" fill="#CF4392"/>
<circle cx="45.3786" cy="11.9881" r="2.31328" transform="rotate(0.328242 45.3786 11.9881)" fill="#CF4392"/>
<circle cx="45.0112" cy="2.73284" r="1.89268" transform="rotate(0.328242 45.0112 2.73284)" fill="#CF4392"/>
<circle cx="45.645" cy="38.9084" r="1.89268" transform="rotate(0.328242 45.645 38.9084)" fill="#CF4392"/>
<circle cx="55.4198" cy="21.2991" r="2.73388" transform="rotate(0.328242 55.4198 21.2991)" fill="#CF4392"/>
<circle cx="55.8935" cy="12.0487" r="2.31328" transform="rotate(0.328242 55.8935 12.0487)" fill="#CF4392"/>
<circle cx="66.4081" cy="12.1087" r="2.31328" transform="rotate(0.328242 66.4081 12.1087)" fill="#CF4392"/>
<circle cx="55.5259" cy="2.7929" r="1.89268" transform="rotate(0.328242 55.5259 2.7929)" fill="#CF4392"/>
<circle cx="66.0407" cy="2.8532" r="1.89268" transform="rotate(0.328242 66.0407 2.8532)" fill="#CF4392"/>
</svg>
