<svg width="68" height="54" viewBox="0 0 68 54" fill="none" xmlns="http://www.w3.org/2000/svg">
<circle cx="63.7786" cy="4.22147" r="4.19749" transform="rotate(0.328242 63.7786 4.22147)" fill="#CF4392"/>
<circle cx="48.199" cy="18.3393" r="3.55172" transform="rotate(0.328242 48.199 18.3393)" fill="#CF4392"/>
<circle cx="64.3428" cy="18.4316" r="3.55172" transform="rotate(0.328242 64.3428 18.4316)" fill="#CF4392"/>
<circle cx="48.7709" cy="31.258" r="2.90595" transform="rotate(0.328242 48.7709 31.258)" fill="#CF4392"/>
<circle cx="64.9149" cy="31.3505" r="2.90595" transform="rotate(0.328242 64.9149 31.3505)" fill="#CF4392"/>
<circle cx="31.3198" cy="43.0348" r="2.26019" fill="#CF4392"/>
<circle cx="35.84" cy="31.9655" r="2.26019" fill="#CF4392"/>
<circle cx="47.4638" cy="43.0348" r="2.26019" fill="#CF4392"/>
<circle cx="63.6081" cy="43.0348" r="2.26019" fill="#CF4392"/>
<circle cx="15.1755" cy="52.7214" r="1.61442" fill="#CF4392"/>
<circle cx="31.3197" cy="52.7214" r="1.61442" fill="#CF4392"/>
<circle cx="18.4045" cy="43.5893" r="1.61442" fill="#CF4392"/>
<circle cx="1.61442" cy="52.63" r="1.61442" fill="#CF4392"/>
<circle cx="47.464" cy="52.7214" r="1.61442" fill="#CF4392"/>
<circle cx="63.6081" cy="52.7214" r="1.61442" fill="#CF4392"/>
</svg>
