<svg width="105" height="84" viewBox="0 0 105 84" fill="none" xmlns="http://www.w3.org/2000/svg">
<circle cx="98.7639" cy="6.53713" r="6.5" transform="rotate(0.328242 98.7639 6.53713)" fill="#CF4392"/>
<circle cx="74.6383" cy="28.3996" r="5.5" transform="rotate(0.328242 74.6383 28.3996)" fill="#CF4392"/>
<circle cx="99.6378" cy="28.5422" r="5.5" transform="rotate(0.328242 99.6378 28.5422)" fill="#CF4392"/>
<circle cx="75.5239" cy="48.4046" r="4.5" transform="rotate(0.328242 75.5239 48.4046)" fill="#CF4392"/>
<circle cx="100.523" cy="48.5482" r="4.5" transform="rotate(0.328242 100.523 48.5482)" fill="#CF4392"/>
<circle cx="48.5" cy="66.6416" r="3.5" fill="#CF4392"/>
<circle cx="55.5" cy="49.5" r="3.5" fill="#CF4392"/>
<circle cx="73.5" cy="66.6416" r="3.5" fill="#CF4392"/>
<circle cx="98.5" cy="66.6416" r="3.5" fill="#CF4392"/>
<circle cx="23.5" cy="81.6416" r="2.5" fill="#CF4392"/>
<circle cx="48.5" cy="81.6416" r="2.5" fill="#CF4392"/>
<circle cx="28.5" cy="67.5" r="2.5" fill="#CF4392"/>
<circle cx="2.5" cy="81.5" r="2.5" fill="#CF4392"/>
<circle cx="73.5" cy="81.6416" r="2.5" fill="#CF4392"/>
<circle cx="98.5" cy="81.6416" r="2.5" fill="#CF4392"/>
</svg>
