<svg width="178" height="161" viewBox="0 0 178 161" fill="none" xmlns="http://www.w3.org/2000/svg">
<circle cx="3.76637" cy="48.5366" r="6.5" transform="rotate(0.328242 3.76637 48.5366)" fill="#CF4392"/>
<circle cx="4.64028" cy="70.5417" r="5.5" transform="rotate(0.328242 4.64028 70.5417)" fill="#CF4392"/>
<circle cx="4.89272" cy="26.5426" r="5.5" transform="rotate(0.328242 4.89272 26.5426)" fill="#CF4392"/>
<circle cx="4.01858" cy="4.53718" r="4.5" transform="rotate(0.328242 4.01858 4.53718)" fill="#CF4392"/>
<circle cx="5.5259" cy="90.5472" r="4.5" transform="rotate(0.328242 5.5259 90.5472)" fill="#CF4392"/>
<circle cx="28.7659" cy="48.6797" r="6.5" transform="rotate(0.328242 28.7659 48.6797)" fill="#CF4392"/>
<circle cx="29.6398" cy="70.6852" r="5.5" transform="rotate(0.328242 29.6398 70.6852)" fill="#CF4392"/>
<circle cx="29.8922" cy="26.6857" r="5.5" transform="rotate(0.328242 29.8922 26.6857)" fill="#CF4392"/>
<circle cx="29.0181" cy="4.68049" r="4.5" transform="rotate(0.328242 29.0181 4.68049)" fill="#CF4392"/>
<circle cx="30.5254" cy="90.6903" r="4.5" transform="rotate(0.328242 30.5254 90.6903)" fill="#CF4392"/>
<circle cx="53.7659" cy="48.8228" r="6.5" transform="rotate(0.328242 53.7659 48.8228)" fill="#CF4392"/>
<circle cx="54.6398" cy="70.8283" r="5.5" transform="rotate(0.328242 54.6398 70.8283)" fill="#CF4392"/>
<circle cx="54.8917" cy="26.8288" r="5.5" transform="rotate(0.328242 54.8917 26.8288)" fill="#CF4392"/>
<circle cx="54.0176" cy="4.82356" r="4.5" transform="rotate(0.328242 54.0176 4.82356)" fill="#CF4392"/>
<circle cx="55.5249" cy="90.8338" r="4.5" transform="rotate(0.328242 55.5249 90.8338)" fill="#CF4392"/>
<circle cx="78.7654" cy="48.9663" r="6.5" transform="rotate(0.328242 78.7654 48.9663)" fill="#CF4392"/>
<circle cx="79.6393" cy="70.9714" r="5.5" transform="rotate(0.328242 79.6393 70.9714)" fill="#CF4392"/>
<circle cx="79.8913" cy="26.9723" r="5.5" transform="rotate(0.328242 79.8913 26.9723)" fill="#CF4392"/>
<circle cx="79.0171" cy="4.96687" r="4.5" transform="rotate(0.328242 79.0171 4.96687)" fill="#CF4392"/>
<circle cx="80.5244" cy="90.9769" r="4.5" transform="rotate(0.328242 80.5244 90.9769)" fill="#CF4392"/>
<circle cx="103.765" cy="49.1094" r="6.5" transform="rotate(0.328242 103.765 49.1094)" fill="#CF4392"/>
<circle cx="104.639" cy="71.1149" r="5.5" transform="rotate(0.328242 104.639 71.1149)" fill="#CF4392"/>
<circle cx="104.891" cy="27.1154" r="5.5" transform="rotate(0.328242 104.891 27.1154)" fill="#CF4392"/>
<circle cx="104.017" cy="5.10993" r="4.5" transform="rotate(0.328242 104.017 5.10993)" fill="#CF4392"/>
<circle cx="105.524" cy="91.1199" r="4.5" transform="rotate(0.328242 105.524 91.1199)" fill="#CF4392"/>
<circle cx="128.764" cy="49.2525" r="6.5" transform="rotate(0.328242 128.764 49.2525)" fill="#CF4392"/>
<circle cx="129.89" cy="27.2585" r="5.5" transform="rotate(0.328242 129.89 27.2585)" fill="#CF4392"/>
<circle cx="154.89" cy="27.402" r="5.5" transform="rotate(0.328242 154.89 27.402)" fill="#CF4392"/>
<circle cx="129.017" cy="5.25325" r="4.5" transform="rotate(0.328242 129.017 5.25325)" fill="#CF4392"/>
<circle cx="154.016" cy="5.39656" r="4.5" transform="rotate(0.328242 154.016 5.39656)" fill="#CF4392"/>
<circle cx="3.5" cy="109.5" r="3.5" fill="#CF4392"/>
<circle cx="29.5" cy="109.5" r="3.5" fill="#CF4392"/>
<circle cx="53.5" cy="109.5" r="3.5" fill="#CF4392"/>
<circle cx="78.5" cy="109.5" r="3.5" fill="#CF4392"/>
<circle cx="3.5" cy="124.5" r="2.5" fill="#CF4392"/>
<circle cx="28.5" cy="124.5" r="2.5" fill="#CF4392"/>
<circle cx="28.5" cy="139.5" r="2.5" fill="#CF4392"/>
<circle cx="4.5" cy="139.5" r="2.5" fill="#CF4392"/>
<circle cx="3.5" cy="158.5" r="2.5" fill="#CF4392"/>
<circle cx="175.5" cy="6.5" r="2.5" fill="#CF4392"/>
<circle cx="53.5" cy="124.5" r="2.5" fill="#CF4392"/>
</svg>
