<svg width="55" height="290" viewBox="0 0 55 290" fill="none" xmlns="http://www.w3.org/2000/svg">
<circle cx="2.56725" cy="171.431" r="2.5" transform="rotate(91.5575 2.56725 171.431)" fill="white" fill-opacity="0.53"/>
<circle cx="3.43297" cy="108.431" r="2.5" transform="rotate(91.5575 3.43297 108.431)" fill="white" fill-opacity="0.53"/>
<circle cx="2.56725" cy="44.4311" r="2.5" transform="rotate(91.5575 2.56725 44.4311)" fill="white" fill-opacity="0.53"/>
<circle cx="3.43297" cy="150.431" r="2.5" transform="rotate(91.5575 3.43297 150.431)" fill="white" fill-opacity="0.53"/>
<circle cx="3.43297" cy="86.5669" r="2.5" transform="rotate(91.5575 3.43297 86.5669)" fill="white" fill-opacity="0.53"/>
<circle cx="3.43297" cy="23.5669" r="2.5" transform="rotate(91.5575 3.43297 23.5669)" fill="white" fill-opacity="0.53"/>
<circle cx="3.43297" cy="129.431" r="2.5" transform="rotate(91.5575 3.43297 129.431)" fill="white" fill-opacity="0.53"/>
<circle cx="3.43297" cy="65.5669" r="2.5" transform="rotate(91.5575 3.43297 65.5669)" fill="white" fill-opacity="0.53"/>
<circle cx="3.43297" cy="2.56687" r="2.5" transform="rotate(91.5575 3.43297 2.56687)" fill="white" fill-opacity="0.53"/>
<circle cx="50.7015" cy="171.431" r="2.5" transform="rotate(91.5575 50.7015 171.431)" fill="white" fill-opacity="0.53"/>
<circle cx="51.7015" cy="108.431" r="2.5" transform="rotate(91.5575 51.7015 108.431)" fill="white" fill-opacity="0.53"/>
<circle cx="50.7015" cy="44.4311" r="2.5" transform="rotate(91.5575 50.7015 44.4311)" fill="white" fill-opacity="0.53"/>
<circle cx="51.7015" cy="150.431" r="2.5" transform="rotate(91.5575 51.7015 150.431)" fill="white" fill-opacity="0.53"/>
<circle cx="51.7015" cy="86.5669" r="2.5" transform="rotate(91.5575 51.7015 86.5669)" fill="white" fill-opacity="0.53"/>
<circle cx="51.7015" cy="23.5669" r="2.5" transform="rotate(91.5575 51.7015 23.5669)" fill="white" fill-opacity="0.53"/>
<circle cx="51.7015" cy="129.431" r="2.5" transform="rotate(91.5575 51.7015 129.431)" fill="white" fill-opacity="0.53"/>
<circle cx="51.7015" cy="65.5669" r="2.5" transform="rotate(91.5575 51.7015 65.5669)" fill="white" fill-opacity="0.53"/>
<circle cx="51.7015" cy="2.56687" r="2.5" transform="rotate(91.5575 51.7015 2.56687)" fill="white" fill-opacity="0.53"/>
<circle cx="26.5672" cy="171.431" r="2.5" transform="rotate(91.5575 26.5672 171.431)" fill="white" fill-opacity="0.53"/>
<circle cx="27.5672" cy="108.431" r="2.5" transform="rotate(91.5575 27.5672 108.431)" fill="white" fill-opacity="0.53"/>
<circle cx="26.5672" cy="44.4311" r="2.5" transform="rotate(91.5575 26.5672 44.4311)" fill="white" fill-opacity="0.53"/>
<circle cx="27.5672" cy="150.431" r="2.5" transform="rotate(91.5575 27.5672 150.431)" fill="white" fill-opacity="0.53"/>
<circle cx="27.5672" cy="86.5669" r="2.5" transform="rotate(91.5575 27.5672 86.5669)" fill="white" fill-opacity="0.53"/>
<circle cx="27.5672" cy="23.5669" r="2.5" transform="rotate(91.5575 27.5672 23.5669)" fill="white" fill-opacity="0.53"/>
<circle cx="27.5672" cy="129.431" r="2.5" transform="rotate(91.5575 27.5672 129.431)" fill="white" fill-opacity="0.53"/>
<circle cx="27.5672" cy="65.5669" r="2.5" transform="rotate(91.5575 27.5672 65.5669)" fill="white" fill-opacity="0.53"/>
<circle cx="27.5672" cy="2.56687" r="2.5" transform="rotate(91.5575 27.5672 2.56687)" fill="white" fill-opacity="0.53"/>
<circle cx="2.56725" cy="234.431" r="2.5" transform="rotate(91.5575 2.56725 234.431)" fill="white" fill-opacity="0.53"/>
<circle cx="3.43297" cy="276.567" r="2.5" transform="rotate(91.5575 3.43297 276.567)" fill="white" fill-opacity="0.53"/>
<circle cx="3.43297" cy="213.567" r="2.5" transform="rotate(91.5575 3.43297 213.567)" fill="white" fill-opacity="0.53"/>
<circle cx="3.43297" cy="255.567" r="2.5" transform="rotate(91.5575 3.43297 255.567)" fill="white" fill-opacity="0.53"/>
<circle cx="3.43297" cy="192.567" r="2.5" transform="rotate(91.5575 3.43297 192.567)" fill="white" fill-opacity="0.53"/>
<circle cx="50.7015" cy="234.431" r="2.5" transform="rotate(91.5575 50.7015 234.431)" fill="white" fill-opacity="0.53"/>
<circle cx="51.7015" cy="276.567" r="2.5" transform="rotate(91.5575 51.7015 276.567)" fill="white" fill-opacity="0.53"/>
<circle cx="51.7015" cy="213.567" r="2.5" transform="rotate(91.5575 51.7015 213.567)" fill="white" fill-opacity="0.53"/>
<circle cx="51.7015" cy="255.567" r="2.5" transform="rotate(91.5575 51.7015 255.567)" fill="white" fill-opacity="0.53"/>
<circle cx="51.7015" cy="192.567" r="2.5" transform="rotate(91.5575 51.7015 192.567)" fill="white" fill-opacity="0.53"/>
<circle cx="26.5672" cy="234.431" r="2.5" transform="rotate(91.5575 26.5672 234.431)" fill="white" fill-opacity="0.53"/>
<circle cx="27.5672" cy="276.567" r="2.5" transform="rotate(91.5575 27.5672 276.567)" fill="white" fill-opacity="0.53"/>
<circle cx="27.5672" cy="213.567" r="2.5" transform="rotate(91.5575 27.5672 213.567)" fill="white" fill-opacity="0.53"/>
<circle cx="27.5672" cy="255.567" r="2.5" transform="rotate(91.5575 27.5672 255.567)" fill="white" fill-opacity="0.53"/>
<circle cx="27.5672" cy="192.567" r="2.5" transform="rotate(91.5575 27.5672 192.567)" fill="white" fill-opacity="0.53"/>
</svg>
