<svg width="28" height="136" viewBox="0 0 28 136" fill="none" xmlns="http://www.w3.org/2000/svg">
<circle cx="1.08424" cy="72.4062" r="1.05591" transform="rotate(91.5575 1.08424 72.4062)" fill="white" fill-opacity="0.53"/>
<circle cx="1.44947" cy="45.7968" r="1.05591" transform="rotate(91.5575 1.44947 45.7968)" fill="white" fill-opacity="0.53"/>
<circle cx="1.08424" cy="18.7661" r="1.05591" transform="rotate(91.5575 1.08424 18.7661)" fill="white" fill-opacity="0.53"/>
<circle cx="1.44947" cy="63.5366" r="1.05591" transform="rotate(91.5575 1.44947 63.5366)" fill="white" fill-opacity="0.53"/>
<circle cx="1.44947" cy="36.5625" r="1.05591" transform="rotate(91.5575 1.44947 36.5625)" fill="white" fill-opacity="0.53"/>
<circle cx="1.44947" cy="9.95357" r="1.05591" transform="rotate(91.5575 1.44947 9.95357)" fill="white" fill-opacity="0.53"/>
<circle cx="1.44947" cy="54.6665" r="1.05591" transform="rotate(91.5575 1.44947 54.6665)" fill="white" fill-opacity="0.53"/>
<circle cx="1.44947" cy="27.6933" r="1.05591" transform="rotate(91.5575 1.44947 27.6933)" fill="white" fill-opacity="0.53"/>
<circle cx="1.44947" cy="1.08443" r="1.05591" transform="rotate(91.5575 1.44947 1.08443)" fill="white" fill-opacity="0.53"/>
<circle cx="26.2085" cy="72.4057" r="1.05591" transform="rotate(91.5575 26.2085 72.4057)" fill="white" fill-opacity="0.53"/>
<circle cx="26.6311" cy="45.7968" r="1.05591" transform="rotate(91.5575 26.6311 45.7968)" fill="white" fill-opacity="0.53"/>
<circle cx="26.2085" cy="18.7656" r="1.05591" transform="rotate(91.5575 26.2085 18.7656)" fill="white" fill-opacity="0.53"/>
<circle cx="26.6311" cy="63.5361" r="1.05591" transform="rotate(91.5575 26.6311 63.5361)" fill="white" fill-opacity="0.53"/>
<circle cx="26.6311" cy="36.5625" r="1.05591" transform="rotate(91.5575 26.6311 36.5625)" fill="white" fill-opacity="0.53"/>
<circle cx="26.6311" cy="9.95357" r="1.05591" transform="rotate(91.5575 26.6311 9.95357)" fill="white" fill-opacity="0.53"/>
<circle cx="26.6311" cy="54.6665" r="1.05591" transform="rotate(91.5575 26.6311 54.6665)" fill="white" fill-opacity="0.53"/>
<circle cx="26.6311" cy="27.6928" r="1.05591" transform="rotate(91.5575 26.6311 27.6928)" fill="white" fill-opacity="0.53"/>
<circle cx="26.6311" cy="1.08443" r="1.05591" transform="rotate(91.5575 26.6311 1.08443)" fill="white" fill-opacity="0.53"/>
<circle cx="13.6179" cy="72.4062" r="1.05591" transform="rotate(91.5575 13.6179 72.4062)" fill="white" fill-opacity="0.53"/>
<circle cx="14.0401" cy="45.7973" r="1.05591" transform="rotate(91.5575 14.0401 45.7973)" fill="white" fill-opacity="0.53"/>
<circle cx="13.6179" cy="18.7661" r="1.05591" transform="rotate(91.5575 13.6179 18.7661)" fill="white" fill-opacity="0.53"/>
<circle cx="14.0401" cy="63.5366" r="1.05591" transform="rotate(91.5575 14.0401 63.5366)" fill="white" fill-opacity="0.53"/>
<circle cx="14.0401" cy="36.5625" r="1.05591" transform="rotate(91.5575 14.0401 36.5625)" fill="white" fill-opacity="0.53"/>
<circle cx="14.0401" cy="9.95357" r="1.05591" transform="rotate(91.5575 14.0401 9.95357)" fill="white" fill-opacity="0.53"/>
<circle cx="14.0401" cy="54.667" r="1.05591" transform="rotate(91.5575 14.0401 54.667)" fill="white" fill-opacity="0.53"/>
<circle cx="14.0401" cy="27.6933" r="1.05591" transform="rotate(91.5575 14.0401 27.6933)" fill="white" fill-opacity="0.53"/>
<circle cx="14.0401" cy="1.08443" r="1.05591" transform="rotate(91.5575 14.0401 1.08443)" fill="white" fill-opacity="0.53"/>
<circle cx="1.44947" cy="126.046" r="1.05591" transform="rotate(91.5575 1.44947 126.046)" fill="white" fill-opacity="0.53"/>
<circle cx="1.08424" cy="99.0151" r="1.05591" transform="rotate(91.5575 1.08424 99.0151)" fill="white" fill-opacity="0.53"/>
<circle cx="1.44947" cy="116.811" r="1.05591" transform="rotate(91.5575 1.44947 116.811)" fill="white" fill-opacity="0.53"/>
<circle cx="1.44947" cy="90.2026" r="1.05591" transform="rotate(91.5575 1.44947 90.2026)" fill="white" fill-opacity="0.53"/>
<circle cx="1.44947" cy="134.915" r="1.05591" transform="rotate(91.5575 1.44947 134.915)" fill="white" fill-opacity="0.53"/>
<circle cx="1.44947" cy="107.942" r="1.05591" transform="rotate(91.5575 1.44947 107.942)" fill="white" fill-opacity="0.53"/>
<circle cx="1.44947" cy="81.333" r="1.05591" transform="rotate(91.5575 1.44947 81.333)" fill="white" fill-opacity="0.53"/>
<circle cx="26.6311" cy="126.046" r="1.05591" transform="rotate(91.5575 26.6311 126.046)" fill="white" fill-opacity="0.53"/>
<circle cx="26.2085" cy="99.0146" r="1.05591" transform="rotate(91.5575 26.2085 99.0146)" fill="white" fill-opacity="0.53"/>
<circle cx="26.6311" cy="116.811" r="1.05591" transform="rotate(91.5575 26.6311 116.811)" fill="white" fill-opacity="0.53"/>
<circle cx="26.6311" cy="90.2026" r="1.05591" transform="rotate(91.5575 26.6311 90.2026)" fill="white" fill-opacity="0.53"/>
<circle cx="26.6311" cy="134.915" r="1.05591" transform="rotate(91.5575 26.6311 134.915)" fill="white" fill-opacity="0.53"/>
<circle cx="26.6311" cy="107.942" r="1.05591" transform="rotate(91.5575 26.6311 107.942)" fill="white" fill-opacity="0.53"/>
<circle cx="26.6311" cy="81.333" r="1.05591" transform="rotate(91.5575 26.6311 81.333)" fill="white" fill-opacity="0.53"/>
<circle cx="14.0401" cy="126.046" r="1.05591" transform="rotate(91.5575 14.0401 126.046)" fill="white" fill-opacity="0.53"/>
<circle cx="13.6179" cy="99.0151" r="1.05591" transform="rotate(91.5575 13.6179 99.0151)" fill="white" fill-opacity="0.53"/>
<circle cx="14.0401" cy="116.811" r="1.05591" transform="rotate(91.5575 14.0401 116.811)" fill="white" fill-opacity="0.53"/>
<circle cx="14.0401" cy="90.2026" r="1.05591" transform="rotate(91.5575 14.0401 90.2026)" fill="white" fill-opacity="0.53"/>
<circle cx="14.0401" cy="134.915" r="1.05591" transform="rotate(91.5575 14.0401 134.915)" fill="white" fill-opacity="0.53"/>
<circle cx="14.0401" cy="107.942" r="1.05591" transform="rotate(91.5575 14.0401 107.942)" fill="white" fill-opacity="0.53"/>
<circle cx="14.0401" cy="81.333" r="1.05591" transform="rotate(91.5575 14.0401 81.333)" fill="white" fill-opacity="0.53"/>
</svg>
