<svg width="206" height="289" viewBox="0 0 206 289" fill="none" xmlns="http://www.w3.org/2000/svg">
<circle cx="200.413" cy="49.5331" r="6.5" transform="rotate(-178.886 200.413 49.5331)" fill="white"/>
<circle cx="199.841" cy="27.5182" r="5.5" transform="rotate(-178.886 199.841 27.5182)" fill="white"/>
<circle cx="198.986" cy="71.5099" r="5.5" transform="rotate(-178.886 198.986 71.5099)" fill="white"/>
<circle cx="199.558" cy="93.5247" r="4.5" transform="rotate(-178.886 199.558 93.5247)" fill="white"/>
<circle cx="199.23" cy="7.50225" r="4.5" transform="rotate(-178.886 199.23 7.50225)" fill="white"/>
<circle cx="175.418" cy="49.0472" r="6.5" transform="rotate(-178.886 175.418 49.0472)" fill="white"/>
<circle cx="174.846" cy="27.0318" r="5.5" transform="rotate(-178.886 174.846 27.0318)" fill="white"/>
<circle cx="173.991" cy="71.0235" r="5.5" transform="rotate(-178.886 173.991 71.0235)" fill="white"/>
<circle cx="174.563" cy="93.0389" r="4.5" transform="rotate(-178.886 174.563 93.0389)" fill="white"/>
<circle cx="174.235" cy="7.01641" r="4.5" transform="rotate(-178.886 174.235 7.01641)" fill="white"/>
<circle cx="150.422" cy="48.5614" r="6.5" transform="rotate(-178.886 150.422 48.5614)" fill="white"/>
<circle cx="149.85" cy="26.546" r="5.5" transform="rotate(-178.886 149.85 26.546)" fill="white"/>
<circle cx="148.995" cy="70.5377" r="5.5" transform="rotate(-178.886 148.995 70.5377)" fill="white"/>
<circle cx="149.567" cy="92.553" r="4.5" transform="rotate(-178.886 149.567 92.553)" fill="white"/>
<circle cx="149.239" cy="6.53057" r="4.5" transform="rotate(-178.886 149.239 6.53057)" fill="white"/>
<circle cx="125.427" cy="48.0756" r="6.5" transform="rotate(-178.886 125.427 48.0756)" fill="white"/>
<circle cx="124.855" cy="26.0602" r="5.5" transform="rotate(-178.886 124.855 26.0602)" fill="white"/>
<circle cx="124" cy="70.0518" r="5.5" transform="rotate(-178.886 124 70.0518)" fill="white"/>
<circle cx="124.572" cy="92.0672" r="4.5" transform="rotate(-178.886 124.572 92.0672)" fill="white"/>
<circle cx="124.244" cy="6.04473" r="4.5" transform="rotate(-178.886 124.244 6.04473)" fill="white"/>
<circle cx="100.432" cy="47.5897" r="6.5" transform="rotate(-178.886 100.432 47.5897)" fill="white"/>
<circle cx="99.8599" cy="25.5743" r="5.5" transform="rotate(-178.886 99.8599 25.5743)" fill="white"/>
<circle cx="99.0047" cy="69.566" r="5.5" transform="rotate(-178.886 99.0047 69.566)" fill="white"/>
<circle cx="99.5768" cy="91.5814" r="4.5" transform="rotate(-178.886 99.5768 91.5814)" fill="white"/>
<circle cx="99.2487" cy="5.5584" r="4.5" transform="rotate(-178.886 99.2487 5.5584)" fill="white"/>
<circle cx="75.4369" cy="47.1034" r="6.5" transform="rotate(-178.886 75.4369 47.1034)" fill="white"/>
<circle cx="74.0093" cy="69.0802" r="5.5" transform="rotate(-178.886 74.0093 69.0802)" fill="white"/>
<circle cx="49.0142" cy="68.5938" r="5.5" transform="rotate(-178.886 49.0142 68.5938)" fill="white"/>
<circle cx="74.5815" cy="91.0955" r="4.5" transform="rotate(-178.886 74.5815 91.0955)" fill="white"/>
<circle cx="49.5864" cy="90.6092" r="4.5" transform="rotate(-178.886 49.5864 90.6092)" fill="white"/>
<ellipse rx="6.5" ry="6.69948" transform="matrix(-0.999985 0.00554691 0.00554691 0.999985 199.775 158.024)" fill="white"/>
<ellipse rx="5.5" ry="5.66879" transform="matrix(-0.999985 0.00554691 0.00554691 0.999985 198.9 180.704)" fill="white"/>
<ellipse rx="5.5" ry="5.66879" transform="matrix(-0.999985 0.00554691 0.00554691 0.999985 198.649 135.354)" fill="white"/>
<ellipse rx="4.5" ry="4.6381" transform="matrix(-0.999985 0.00554691 0.00554691 0.999985 199.523 112.674)" fill="white"/>
<ellipse rx="4.5" ry="4.6381" transform="matrix(-0.999985 0.00554691 0.00554691 0.999985 198.015 201.323)" fill="white"/>
<ellipse rx="6.5" ry="6.69948" transform="matrix(-0.999985 0.00554691 0.00554691 0.999985 174.775 158.163)" fill="white"/>
<ellipse rx="5.5" ry="5.66879" transform="matrix(-0.999985 0.00554691 0.00554691 0.999985 173.901 180.843)" fill="white"/>
<ellipse rx="5.5" ry="5.66879" transform="matrix(-0.999985 0.00554691 0.00554691 0.999985 173.649 135.493)" fill="white"/>
<ellipse rx="4.5" ry="4.6381" transform="matrix(-0.999985 0.00554691 0.00554691 0.999985 174.523 112.813)" fill="white"/>
<ellipse rx="4.5" ry="4.6381" transform="matrix(-0.999985 0.00554691 0.00554691 0.999985 173.015 201.462)" fill="white"/>
<ellipse rx="6.5" ry="6.69948" transform="matrix(-0.999985 0.00554691 0.00554691 0.999985 149.775 158.301)" fill="white"/>
<ellipse rx="5.5" ry="5.66879" transform="matrix(-0.999985 0.00554691 0.00554691 0.999985 148.901 180.981)" fill="white"/>
<ellipse rx="5.5" ry="5.66879" transform="matrix(-0.999985 0.00554691 0.00554691 0.999985 148.65 135.632)" fill="white"/>
<ellipse rx="4.5" ry="4.6381" transform="matrix(-0.999985 0.00554691 0.00554691 0.999985 149.524 112.952)" fill="white"/>
<ellipse rx="4.5" ry="4.6381" transform="matrix(-0.999985 0.00554691 0.00554691 0.999985 148.016 201.6)" fill="white"/>
<ellipse rx="6.5" ry="6.69948" transform="matrix(-0.999985 0.00554691 0.00554691 0.999985 124.776 158.44)" fill="white"/>
<ellipse rx="5.5" ry="5.66879" transform="matrix(-0.999985 0.00554691 0.00554691 0.999985 123.901 181.12)" fill="white"/>
<ellipse rx="5.5" ry="5.66879" transform="matrix(-0.999985 0.00554691 0.00554691 0.999985 123.65 135.77)" fill="white"/>
<ellipse rx="4.5" ry="4.6381" transform="matrix(-0.999985 0.00554691 0.00554691 0.999985 124.524 113.09)" fill="white"/>
<ellipse rx="4.5" ry="4.6381" transform="matrix(-0.999985 0.00554691 0.00554691 0.999985 123.016 201.739)" fill="white"/>
<ellipse rx="6.5" ry="6.69948" transform="matrix(-0.999985 0.00554691 0.00554691 0.999985 99.7763 158.579)" fill="white"/>
<ellipse rx="5.5" ry="5.66879" transform="matrix(-0.999985 0.00554691 0.00554691 0.999985 98.9021 181.259)" fill="white"/>
<ellipse rx="5.5" ry="5.66879" transform="matrix(-0.999985 0.00554691 0.00554691 0.999985 98.6502 135.909)" fill="white"/>
<ellipse rx="4.5" ry="4.6381" transform="matrix(-0.999985 0.00554691 0.00554691 0.999985 99.5243 113.229)" fill="white"/>
<ellipse rx="4.5" ry="4.6381" transform="matrix(-0.999985 0.00554691 0.00554691 0.999985 98.0165 201.878)" fill="white"/>
<ellipse rx="6.5" ry="6.69948" transform="matrix(-0.999985 0.00554691 0.00554691 0.999985 74.7765 158.717)" fill="white"/>
<ellipse rx="5.5" ry="5.66879" transform="matrix(-0.999985 0.00554691 0.00554691 0.999985 73.6507 136.048)" fill="white"/>
<ellipse rx="5.5" ry="5.66879" transform="matrix(-0.999985 0.00554691 0.00554691 0.999985 48.6514 136.187)" fill="white"/>
<ellipse rx="4.5" ry="4.6381" transform="matrix(-0.999985 0.00554691 0.00554691 0.999985 74.5251 113.368)" fill="white"/>
<ellipse rx="4.5" ry="4.6381" transform="matrix(-0.999985 0.00554691 0.00554691 0.999985 49.5256 113.506)" fill="white"/>
<circle cx="153.567" cy="225.567" r="2.5" transform="rotate(91.5575 153.567 225.567)" fill="white" fill-opacity="0.86"/>
<circle cx="154.567" cy="243.567" r="2.5" transform="rotate(91.5575 154.567 243.567)" fill="white" fill-opacity="0.86"/>
<circle cx="176.567" cy="224.567" r="2.5" transform="rotate(91.5575 176.567 224.567)" fill="white" fill-opacity="0.86"/>
<circle cx="196.567" cy="224.567" r="2.5" transform="rotate(91.5575 196.567 224.567)" fill="white" fill-opacity="0.86"/>
<circle cx="197.567" cy="245.567" r="2.5" transform="rotate(91.5575 197.567 245.567)" fill="white" fill-opacity="0.86"/>
<circle cx="198.567" cy="265.567" r="2.5" transform="rotate(91.5575 198.567 265.567)" fill="white" fill-opacity="0.86"/>
<circle cx="199.567" cy="285.567" r="2.5" transform="rotate(91.5575 199.567 285.567)" fill="white" fill-opacity="0.86"/>
<circle cx="25.567" cy="92.5669" r="2.5" transform="rotate(91.5575 25.567 92.5669)" fill="white"/>
<circle cx="76.567" cy="24.5669" r="2.5" transform="rotate(91.5575 76.567 24.5669)" fill="white"/>
<circle cx="2.56701" cy="115.567" r="2.5" transform="rotate(91.5575 2.56701 115.567)" fill="white"/>
<circle cx="25.567" cy="115.567" r="2.5" transform="rotate(91.5575 25.567 115.567)" fill="white"/>
<circle cx="126.567" cy="224.567" r="2.5" transform="rotate(91.5575 126.567 224.567)" fill="white" fill-opacity="0.86"/>
<circle cx="176.567" cy="243.567" r="2.5" transform="rotate(91.5575 176.567 243.567)" fill="white" fill-opacity="0.86"/>
<circle cx="177.567" cy="263.567" r="2.5" transform="rotate(91.5575 177.567 263.567)" fill="white" fill-opacity="0.86"/>
</svg>
