<svg width="56" height="78" viewBox="0 0 56 78" fill="none" xmlns="http://www.w3.org/2000/svg">
<circle cx="54.0052" cy="13.348" r="1.75155" transform="rotate(-178.886 54.0052 13.348)" fill="white"/>
<circle cx="53.851" cy="7.41566" r="1.48208" transform="rotate(-178.886 53.851 7.41566)" fill="white"/>
<circle cx="53.6205" cy="19.2697" r="1.48208" transform="rotate(-178.886 53.6205 19.2697)" fill="white"/>
<circle cx="53.7748" cy="25.2025" r="1.21261" transform="rotate(-178.886 53.7748 25.2025)" fill="white"/>
<circle cx="53.6864" cy="2.02186" r="1.21261" transform="rotate(-178.886 53.6864 2.02186)" fill="white"/>
<circle cx="47.2696" cy="13.2172" r="1.75155" transform="rotate(-178.886 47.2696 13.2172)" fill="white"/>
<circle cx="47.1156" cy="7.28431" r="1.48208" transform="rotate(-178.886 47.1156 7.28431)" fill="white"/>
<circle cx="46.8851" cy="19.1388" r="1.48208" transform="rotate(-178.886 46.8851 19.1388)" fill="white"/>
<circle cx="47.0392" cy="25.0712" r="1.21261" transform="rotate(-178.886 47.0392 25.0712)" fill="white"/>
<circle cx="46.9508" cy="1.891" r="1.21261" transform="rotate(-178.886 46.9508 1.891)" fill="white"/>
<circle cx="40.5343" cy="13.0858" r="1.75155" transform="rotate(-178.886 40.5343 13.0858)" fill="white"/>
<circle cx="40.38" cy="7.15345" r="1.48208" transform="rotate(-178.886 40.38 7.15345)" fill="white"/>
<circle cx="40.1495" cy="19.0079" r="1.48208" transform="rotate(-178.886 40.1495 19.0079)" fill="white"/>
<circle cx="40.3039" cy="24.9403" r="1.21261" transform="rotate(-178.886 40.3039 24.9403)" fill="white"/>
<circle cx="40.2155" cy="1.76014" r="1.21261" transform="rotate(-178.886 40.2155 1.76014)" fill="white"/>
<circle cx="33.7989" cy="12.955" r="1.75155" transform="rotate(-178.886 33.7989 12.955)" fill="white"/>
<circle cx="33.6447" cy="7.02259" r="1.48208" transform="rotate(-178.886 33.6447 7.02259)" fill="white"/>
<circle cx="33.4142" cy="18.8771" r="1.48208" transform="rotate(-178.886 33.4142 18.8771)" fill="white"/>
<circle cx="33.5685" cy="24.8095" r="1.21261" transform="rotate(-178.886 33.5685 24.8095)" fill="white"/>
<circle cx="33.4799" cy="1.62879" r="1.21261" transform="rotate(-178.886 33.4799 1.62879)" fill="white"/>
<circle cx="27.0633" cy="12.8241" r="1.75155" transform="rotate(-178.886 27.0633 12.8241)" fill="white"/>
<circle cx="26.9093" cy="6.89173" r="1.48208" transform="rotate(-178.886 26.9093 6.89173)" fill="white"/>
<circle cx="26.6788" cy="18.7462" r="1.48208" transform="rotate(-178.886 26.6788 18.7462)" fill="white"/>
<circle cx="26.8329" cy="24.6786" r="1.21261" transform="rotate(-178.886 26.8329 24.6786)" fill="white"/>
<circle cx="26.7445" cy="1.49793" r="1.21261" transform="rotate(-178.886 26.7445 1.49793)" fill="white"/>
<circle cx="20.328" cy="12.6933" r="1.75155" transform="rotate(-178.886 20.328 12.6933)" fill="white"/>
<circle cx="19.9432" cy="18.6154" r="1.48208" transform="rotate(-178.886 19.9432 18.6154)" fill="white"/>
<circle cx="13.2079" cy="18.484" r="1.48208" transform="rotate(-178.886 13.2079 18.484)" fill="white"/>
<circle cx="20.0973" cy="24.5477" r="1.21261" transform="rotate(-178.886 20.0973 24.5477)" fill="white"/>
<circle cx="13.362" cy="24.4169" r="1.21261" transform="rotate(-178.886 13.362 24.4169)" fill="white"/>
<ellipse rx="1.75155" ry="1.8053" transform="matrix(-0.999985 0.00554691 0.00554691 0.999985 53.8332 42.5826)" fill="white"/>
<ellipse rx="1.48208" ry="1.52757" transform="matrix(-0.999985 0.00554691 0.00554691 0.999985 53.5977 48.694)" fill="white"/>
<ellipse rx="1.48208" ry="1.52757" transform="matrix(-0.999985 0.00554691 0.00554691 0.999985 53.5298 36.4738)" fill="white"/>
<ellipse rx="1.21261" ry="1.24983" transform="matrix(-0.999985 0.00554691 0.00554691 0.999985 53.7653 30.362)" fill="white"/>
<ellipse rx="1.21261" ry="1.24983" transform="matrix(-0.999985 0.00554691 0.00554691 0.999985 53.359 54.2502)" fill="white"/>
<ellipse rx="1.75155" ry="1.8053" transform="matrix(-0.999985 0.00554691 0.00554691 0.999985 47.0966 42.6197)" fill="white"/>
<ellipse rx="1.48208" ry="1.52757" transform="matrix(-0.999985 0.00554691 0.00554691 0.999985 46.8609 48.7316)" fill="white"/>
<ellipse rx="1.48208" ry="1.52757" transform="matrix(-0.999985 0.00554691 0.00554691 0.999985 46.793 36.5113)" fill="white"/>
<ellipse rx="1.21261" ry="1.24983" transform="matrix(-0.999985 0.00554691 0.00554691 0.999985 47.0287 30.3996)" fill="white"/>
<ellipse rx="1.21261" ry="1.24983" transform="matrix(-0.999985 0.00554691 0.00554691 0.999985 46.6222 54.2878)" fill="white"/>
<ellipse rx="1.75155" ry="1.8053" transform="matrix(-0.999985 0.00554691 0.00554691 0.999985 40.3598 42.6573)" fill="white"/>
<ellipse rx="1.48208" ry="1.52757" transform="matrix(-0.999985 0.00554691 0.00554691 0.999985 40.1243 48.7687)" fill="white"/>
<ellipse rx="1.48208" ry="1.52757" transform="matrix(-0.999985 0.00554691 0.00554691 0.999985 40.0564 36.5485)" fill="white"/>
<ellipse rx="1.21261" ry="1.24983" transform="matrix(-0.999985 0.00554691 0.00554691 0.999985 40.2921 30.4367)" fill="white"/>
<ellipse rx="1.21261" ry="1.24983" transform="matrix(-0.999985 0.00554691 0.00554691 0.999985 39.8856 54.3249)" fill="white"/>
<ellipse rx="1.75155" ry="1.8053" transform="matrix(-0.999985 0.00554691 0.00554691 0.999985 33.6232 42.6944)" fill="white"/>
<ellipse rx="1.48208" ry="1.52757" transform="matrix(-0.999985 0.00554691 0.00554691 0.999985 33.3877 48.8063)" fill="white"/>
<ellipse rx="1.48208" ry="1.52757" transform="matrix(-0.999985 0.00554691 0.00554691 0.999985 33.3199 36.5861)" fill="white"/>
<ellipse rx="1.21261" ry="1.24983" transform="matrix(-0.999985 0.00554691 0.00554691 0.999985 33.5553 30.4743)" fill="white"/>
<ellipse rx="1.21261" ry="1.24983" transform="matrix(-0.999985 0.00554691 0.00554691 0.999985 33.1491 54.3625)" fill="white"/>
<ellipse rx="1.75155" ry="1.8053" transform="matrix(-0.999985 0.00554691 0.00554691 0.999985 26.8867 42.732)" fill="white"/>
<ellipse rx="1.48208" ry="1.52757" transform="matrix(-0.999985 0.00554691 0.00554691 0.999985 26.6512 48.8434)" fill="white"/>
<ellipse rx="1.48208" ry="1.52757" transform="matrix(-0.999985 0.00554691 0.00554691 0.999985 26.5833 36.6232)" fill="white"/>
<ellipse rx="1.21261" ry="1.24983" transform="matrix(-0.999985 0.00554691 0.00554691 0.999985 26.8188 30.5114)" fill="white"/>
<ellipse rx="1.21261" ry="1.24983" transform="matrix(-0.999985 0.00554691 0.00554691 0.999985 26.4125 54.3996)" fill="white"/>
<ellipse rx="1.75155" ry="1.8053" transform="matrix(-0.999985 0.00554691 0.00554691 0.999985 20.1501 42.7691)" fill="white"/>
<ellipse rx="1.48208" ry="1.52757" transform="matrix(-0.999985 0.00554691 0.00554691 0.999985 19.8467 36.6608)" fill="white"/>
<ellipse rx="1.48208" ry="1.52757" transform="matrix(-0.999985 0.00554691 0.00554691 0.999985 13.1102 36.6979)" fill="white"/>
<ellipse rx="1.21261" ry="1.24983" transform="matrix(-0.999985 0.00554691 0.00554691 0.999985 20.0822 30.549)" fill="white"/>
<ellipse rx="1.21261" ry="1.24983" transform="matrix(-0.999985 0.00554691 0.00554691 0.999985 13.3456 30.5861)" fill="white"/>
<circle cx="41.3815" cy="60.7835" r="0.673674" transform="rotate(91.5575 41.3815 60.7835)" fill="white" fill-opacity="0.86"/>
<circle cx="41.651" cy="65.6336" r="0.673674" transform="rotate(91.5575 41.651 65.6336)" fill="white" fill-opacity="0.86"/>
<circle cx="47.5795" cy="60.514" r="0.673674" transform="rotate(91.5575 47.5795 60.514)" fill="white" fill-opacity="0.86"/>
<circle cx="52.9689" cy="60.514" r="0.673674" transform="rotate(91.5575 52.9689 60.514)" fill="white" fill-opacity="0.86"/>
<circle cx="53.2382" cy="66.1727" r="0.673674" transform="rotate(91.5575 53.2382 66.1727)" fill="white" fill-opacity="0.86"/>
<circle cx="53.5077" cy="71.5623" r="0.673674" transform="rotate(91.5575 53.5077 71.5623)" fill="white" fill-opacity="0.86"/>
<circle cx="53.7773" cy="76.9515" r="0.673674" transform="rotate(91.5575 53.7773 76.9515)" fill="white" fill-opacity="0.86"/>
<circle cx="6.88956" cy="24.9442" r="0.673674" transform="rotate(91.5575 6.88956 24.9442)" fill="white"/>
<circle cx="20.6325" cy="6.61996" r="0.673674" transform="rotate(91.5575 20.6325 6.61996)" fill="white"/>
<circle cx="0.691809" cy="31.1419" r="0.673674" transform="rotate(91.5575 0.691809 31.1419)" fill="white"/>
<circle cx="6.88956" cy="31.1419" r="0.673674" transform="rotate(91.5575 6.88956 31.1419)" fill="white"/>
<circle cx="34.1059" cy="60.514" r="0.673674" transform="rotate(91.5575 34.1059 60.514)" fill="white" fill-opacity="0.86"/>
<circle cx="47.5795" cy="65.6336" r="0.673674" transform="rotate(91.5575 47.5795 65.6336)" fill="white" fill-opacity="0.86"/>
<circle cx="47.8488" cy="71.0233" r="0.673674" transform="rotate(91.5575 47.8488 71.0233)" fill="white" fill-opacity="0.86"/>
</svg>
